<svg width="24" height="24" viewBox="0 0 24 24" fill="none" xmlns="http://www.w3.org/2000/svg">
<g clip-path="url(#clip0_1_1322)">
<path d="M19.125 10.5C20.5747 10.5 21.75 9.32475 21.75 7.875C21.75 6.42525 20.5747 5.25 19.125 5.25C17.6753 5.25 16.5 6.42525 16.5 7.875C16.5 9.32475 17.6753 10.5 19.125 10.5Z" stroke="black" stroke-linecap="round" stroke-linejoin="round"/>
<path d="M4.5 19.5H1.5C1.30109 19.5 1.11032 19.421 0.96967 19.2803C0.829018 19.1397 0.75 18.9489 0.75 18.75V15C0.75 14.8011 0.829018 14.6103 0.96967 14.4697C1.11032 14.329 1.30109 14.25 1.5 14.25H4.5" stroke="black" stroke-linecap="round" stroke-linejoin="round"/>
<path d="M10.5 15H13.5L19.7812 13.5553C20.0122 13.492 20.2546 13.4829 20.4897 13.5285C20.7247 13.5741 20.9461 13.6734 21.1365 13.8185C21.327 13.9636 21.4814 14.1507 21.5878 14.3652C21.6942 14.5797 21.7497 14.8159 21.75 15.0553C21.7501 15.3444 21.6697 15.6279 21.5176 15.8738C21.3656 16.1197 21.148 16.3184 20.8894 16.4475L17.25 18L11.25 19.5H4.5V14.25L6.84375 11.9063C7.05324 11.6975 7.30182 11.5321 7.5753 11.4195C7.84877 11.3069 8.14175 11.2493 8.4375 11.25H13.125C13.6223 11.25 14.0992 11.4476 14.4508 11.7992C14.8025 12.1508 15 12.6277 15 13.125C15 13.6223 14.8025 14.0992 14.4508 14.4508C14.0992 14.8025 13.6223 15 13.125 15H10.5Z" stroke="black" stroke-linecap="round" stroke-linejoin="round"/>
<path d="M16.5 7.99591C15.9905 8.23686 15.417 8.30745 14.8643 8.19724C14.3116 8.08702 13.8091 7.80186 13.431 7.38391C13.0529 6.96597 12.8194 6.43744 12.765 5.8765C12.7105 5.31556 12.8381 4.75199 13.1287 4.26914C13.4194 3.78629 13.8577 3.40981 14.3789 3.19537C14.9001 2.98093 15.4764 2.93993 16.0227 3.07841C16.569 3.2169 17.0563 3.52753 17.4123 3.96437C17.7684 4.4012 17.9745 4.94104 18 5.50403" stroke="black" stroke-linecap="round" stroke-linejoin="round"/>
</g>
<defs>
<clipPath id="clip0_1_1322">
<rect width="24" height="24" fill="white"/>
</clipPath>
</defs>
</svg>
