<svg width="1287" height="492" viewBox="0 0 1287 492" fill="none" xmlns="http://www.w3.org/2000/svg">
<path d="M490.921 409.311H497.988M497.988 409.311H539.448M497.988 409.311V383.526M497.988 409.311V412.994M539.448 409.311H580.907M539.448 409.311V383.526M539.448 409.311V412.994M580.907 409.311H622.367M580.907 409.311V383.526M580.907 409.311V412.994M622.367 409.311H663.827M622.367 409.311V383.526M622.367 409.311V412.994M663.827 409.311H705.287M663.827 409.311V383.526M663.827 409.311V412.994M705.287 409.311H746.746M705.287 409.311V383.526M705.287 409.311V412.994M746.746 409.311H788.206M746.746 409.311V383.526M746.746 409.311V412.994M788.206 409.311H801.869M788.206 409.311V383.526M788.206 409.311V412.994M0.471162 11.4947L0.471161 29.9121M0.471161 29.9121L0.471159 59.38M0.471161 29.9121H0M0.471161 29.9121H41.9309M0.471159 59.38L0.471157 88.8478M0.471159 59.38H0M0.471159 59.38H41.9309M0.471157 88.8478L0.471156 118.316M0.471157 88.8478H0M0.471157 88.8478H41.9309M0.471156 118.316L0.471154 147.784M0.471156 118.316H0M0.471156 118.316H41.9309M0.471154 147.784L0.471152 177.251M0.471154 147.784H0M0.471154 147.784H41.9309M0.471152 177.251L0.47115 206.719M0.471152 177.251H0M0.471152 177.251H41.9309M0.47115 206.719L0.471148 236.187M0.47115 206.719H0M0.47115 206.719H41.9309M0.471148 236.187L0.471147 265.655M0.471148 236.187H0M0.471148 236.187H41.9309M0.471147 265.655L0.471145 295.123M0.471147 265.655H0M0.471147 265.655H41.9309M0.471145 295.123L0.471143 324.591M0.471145 295.123H0M0.471145 295.123H41.9309M0.471143 324.591L0.471141 354.058M0.471143 324.591H0M0.471143 324.591H41.9309M0.471141 354.058L0.471139 383.526M0.471141 354.058H0M0.471141 354.058H41.9309M0.471139 383.526L0.471138 412.994M0.471139 383.526H0M0.471139 383.526H41.9309M0.471138 412.994L0.471136 442.462M0.471138 412.994H0M0.471138 412.994H41.9309M0.471136 442.462L0.471134 471.93M0.471136 442.462H0M0.471136 442.462H41.9309M0.471134 471.93L0.471133 491.017M0.471134 471.93H0M0.471134 471.93H41.9309M41.9309 11.4947V29.9121M41.9309 29.9121L41.9309 59.38M41.9309 29.9121H83.3906M41.9309 59.38V88.8478M41.9309 59.38H83.3906M41.9309 88.8478L41.9309 118.316M41.9309 88.8478H83.3906M41.9309 118.316V147.784M41.9309 118.316H83.3906M41.9309 147.784V177.251M41.9309 147.784H83.3906M41.9309 177.251L41.9309 206.719M41.9309 177.251H83.3906M41.9309 206.719V236.187M41.9309 206.719H83.3906M41.9309 236.187L41.9309 265.655M41.9309 236.187H83.3906M41.9309 265.655V295.123M41.9309 265.655H83.3906M41.9309 295.123L41.9309 324.591M41.9309 295.123H83.3906M41.9309 324.591V354.058M41.9309 324.591H83.3906M41.9309 354.058V383.526M41.9309 354.058H83.3906M41.9309 383.526L41.9309 412.994M41.9309 383.526H83.3906M41.9309 412.994V442.462M41.9309 412.994H83.3906M41.9309 442.462L41.9309 471.93M41.9309 442.462H83.3906M41.9309 471.93V491.017M41.9309 471.93H83.3906M83.3906 11.4947V29.9121M83.3906 29.9121V59.38M83.3906 29.9121H124.85M83.3906 59.38L83.3906 88.8478M83.3906 59.38H124.85M83.3906 88.8478V118.316M83.3906 88.8478H124.85M83.3906 118.316V147.784M83.3906 118.316H124.85M83.3906 147.784V177.251M83.3906 147.784H124.85M83.3906 177.251L83.3906 206.719M83.3906 177.251H124.85M83.3906 206.719V236.187M83.3906 206.719H124.85M83.3906 236.187V265.655M83.3906 236.187H124.85M83.3906 265.655V295.123M83.3906 265.655H124.85M83.3906 295.123L83.3906 324.591M83.3906 295.123H124.85M83.3906 324.591V354.058M83.3906 324.591H124.85M83.3906 354.058V383.526M83.3906 354.058H124.85M83.3906 383.526V412.994M83.3906 383.526H124.85M83.3906 412.994L83.3906 442.462M83.3906 412.994H124.85M83.3906 442.462V471.93M83.3906 442.462H124.85M83.3906 471.93V491.017M83.3906 471.93H124.85M124.85 11.4947V29.9121M124.85 29.9121V59.38M124.85 29.9121H166.31M124.85 59.38L124.85 88.8478M124.85 59.38H166.31M124.85 88.8478V118.316M124.85 88.8478H166.31M124.85 118.316V147.784M124.85 118.316H166.31M124.85 147.784V177.251M124.85 147.784H166.31M124.85 177.251L124.85 206.719M124.85 177.251H166.31M124.85 206.719V236.187M124.85 206.719H166.31M124.85 236.187V265.655M124.85 236.187H166.31M124.85 265.655V295.123M124.85 265.655H166.31M124.85 295.123L124.85 324.591M124.85 295.123H166.31M124.85 324.591V354.058M124.85 324.591H166.31M124.85 354.058V383.526M124.85 354.058H166.31M124.85 383.526V412.994M124.85 383.526H166.31M124.85 412.994L124.85 442.462M124.85 412.994H166.31M124.85 442.462V471.93M124.85 442.462H166.31M124.85 471.93V491.017M124.85 471.93H166.31M166.31 11.4947V29.9121M166.31 29.9121V59.38M166.31 29.9121H207.77M166.31 59.38V88.8478M166.31 59.38H207.77M166.31 88.8478V118.316M166.31 88.8478H207.77M166.31 118.316L166.31 147.784M166.31 118.316H207.77M166.31 147.784V177.251M166.31 147.784H207.77M166.31 177.251V206.719M166.31 177.251H207.77M166.31 206.719V236.187M166.31 206.719H207.77M166.31 236.187V265.655M166.31 236.187H207.77M166.31 265.655V295.123M166.31 265.655H207.77M166.31 295.123V324.591M166.31 295.123H207.77M166.31 324.591V354.058M166.31 324.591H207.77M166.31 354.058L166.31 383.526M166.31 354.058H207.77M166.31 383.526V412.994M166.31 383.526H207.77M166.31 412.994V442.462M166.31 412.994H207.77M166.31 442.462V471.93M166.31 442.462H207.77M166.31 471.93V491.017M166.31 471.93H207.77M207.77 11.4947V29.9121M207.77 29.9121V59.38M207.77 29.9121H249.23M207.77 59.38V88.8478M207.77 59.38H249.23M207.77 88.8478V118.316M207.77 88.8478H249.23M207.77 118.316L207.77 147.784M207.77 118.316H249.23M207.77 147.784V177.251M207.77 147.784H249.23M207.77 177.251V206.719M207.77 177.251H249.23M207.77 206.719V236.187M207.77 206.719H249.23M207.77 236.187V265.655M207.77 236.187H249.23M207.77 265.655V295.123M207.77 265.655H249.23M207.77 295.123V324.591M207.77 295.123H249.23M207.77 324.591V354.058M207.77 324.591H249.23M207.77 354.058L207.77 383.526M207.77 354.058H249.23M207.77 383.526V412.994M207.77 383.526H249.23M207.77 412.994V442.462M207.77 412.994H249.23M207.77 442.462V471.93M207.77 442.462H249.23M207.77 471.93V491.017M207.77 471.93H249.23M249.23 11.4947V29.9121M249.23 29.9121V59.38M249.23 29.9121H290.689M249.23 59.38V88.8478M249.23 59.38H290.689M249.23 88.8478V118.316M249.23 88.8478H290.689M249.23 118.316V147.784M249.23 118.316H290.689M249.23 147.784V177.251M249.23 147.784H290.689M249.23 177.251V206.719M249.23 177.251H290.689M249.23 206.719V236.187M249.23 206.719H290.689M249.23 236.187L249.23 265.655M249.23 236.187H290.689M249.23 265.655V295.123M249.23 265.655H290.689M249.23 295.123V324.591M249.23 295.123H290.689M249.23 324.591V354.058M249.23 324.591H290.689M249.23 354.058V383.526M249.23 354.058H290.689M249.23 383.526V412.994M249.23 383.526H290.689M249.23 412.994V442.462M249.23 412.994H290.689M249.23 442.462V471.93M249.23 442.462H290.689M249.23 471.93V491.017M249.23 471.93H290.689M290.689 11.4947V29.9121M290.689 29.9121V59.38M290.689 29.9121H332.149M290.689 59.38V88.8478M290.689 59.38H332.149M290.689 88.8478V118.316M290.689 88.8478H332.149M290.689 118.316V147.784M290.689 118.316H332.149M290.689 147.784V177.251M290.689 147.784H332.149M290.689 177.251V206.719M290.689 177.251H332.149M290.689 206.719V236.187M290.689 206.719H332.149M290.689 236.187L290.689 265.655M290.689 236.187H332.149M290.689 265.655V295.123M290.689 265.655H332.149M290.689 295.123V324.591M290.689 295.123H332.149M290.689 324.591V354.058M290.689 324.591H332.149M290.689 354.058V383.526M290.689 354.058H332.149M290.689 383.526V412.994M290.689 383.526H332.149M290.689 412.994V442.462M290.689 412.994H332.149M290.689 442.462V471.93M290.689 442.462H332.149M290.689 471.93V491.017M290.689 471.93H332.149M332.149 11.4947V29.9121M332.149 29.9121V59.38M332.149 29.9121H373.609M332.149 59.38V88.8478M332.149 59.38H373.609M332.149 88.8478V118.316M332.149 88.8478H373.609M332.149 118.316V147.784M332.149 118.316H373.609M332.149 147.784V177.251M332.149 147.784H373.609M332.149 177.251V206.719M332.149 177.251H373.609M332.149 206.719V236.187M332.149 206.719H373.609M332.149 236.187L332.149 265.655M332.149 236.187H373.609M332.149 265.655V295.123M332.149 265.655H373.609M332.149 295.123V324.591M332.149 295.123H373.609M332.149 324.591V354.058M332.149 324.591H373.609M332.149 354.058V383.526M332.149 354.058H373.609M332.149 383.526V412.994M332.149 383.526H373.609M332.149 412.994V442.462M332.149 412.994H373.609M332.149 442.462V471.93M332.149 442.462H373.609M332.149 471.93V491.017M332.149 471.93H373.609M373.609 471.93H415.069M373.609 471.93V442.462M373.609 471.93V491.017M415.069 471.93H456.528M415.069 471.93V442.462M415.069 471.93V491.017M456.528 471.93H497.988M456.528 471.93V442.462M456.528 471.93V491.017M497.988 471.93H539.448M497.988 471.93V442.462M497.988 471.93V491.017M539.448 471.93H580.907M539.448 471.93V442.462M539.448 471.93V491.017M580.907 471.93H622.367M580.907 471.93V442.462M580.907 471.93V491.017M622.367 471.93H663.827M622.367 471.93V442.462M622.367 471.93V491.017M663.827 471.93H705.287M663.827 471.93V442.462M663.827 471.93V491.017M705.287 471.93H746.746M705.287 471.93V442.462M705.287 471.93V491.017M746.746 471.93H788.206M746.746 471.93V442.462M746.746 471.93V491.017M788.206 471.93H829.666M788.206 471.93V442.462M788.206 471.93V491.017M829.666 471.93H871.126M829.666 471.93V442.462M829.666 471.93V491.017M871.126 471.93H912.585M871.126 471.93V442.462M871.126 471.93V491.017M912.585 471.93H954.045M912.585 471.93V442.462M912.585 471.93V491.017M954.045 471.93H995.505M954.045 471.93V442.462M954.045 471.93V491.017M995.505 471.93H1036.96M995.505 471.93V442.462M995.505 471.93V491.017M1036.96 471.93H1078.42M1036.96 471.93V442.462M1036.96 471.93V491.017M1078.42 471.93H1119.88M1078.42 471.93V442.462M1078.42 471.93V491.017M1119.88 471.93H1161.34M1119.88 471.93V442.462M1119.88 471.93V491.017M1161.34 471.93H1202.8M1161.34 471.93V442.462M1161.34 471.93V491.017M1202.8 471.93H1244.26M1202.8 471.93V442.462M1202.8 471.93V491.017M1244.26 471.93H1285.25M1244.26 471.93V442.462M1244.26 471.93V491.017M373.609 11.4947V29.9121M373.609 29.9121V59.38M373.609 29.9121H415.069M373.609 59.38V88.8478M373.609 59.38H415.069M373.609 88.8478V118.316M373.609 88.8478H415.069M373.609 118.316V147.784M373.609 118.316H415.069M373.609 147.784V177.251M373.609 147.784H415.069M373.609 177.251V206.719M373.609 177.251H415.069M373.609 206.719V236.187M373.609 206.719H415.069M373.609 236.187L373.609 265.655M373.609 236.187H415.069M373.609 265.655V295.123M373.609 265.655H415.069M373.609 295.123V324.591M373.609 295.123H415.069M373.609 324.591V354.058M373.609 324.591H415.069M373.609 354.058V383.526M373.609 354.058H415.069M373.609 383.526V412.994M373.609 383.526H415.069M373.609 412.994V442.462M373.609 412.994H415.069M373.609 442.462H415.069M415.069 442.462H456.528M415.069 442.462V412.994M456.528 442.462H497.988M456.528 442.462V412.994M497.988 442.462H539.448M497.988 442.462V412.994M539.448 442.462H580.907M539.448 442.462V412.994M580.907 442.462H622.367M580.907 442.462V412.994M622.367 442.462H663.827M622.367 442.462V412.994M663.827 442.462H705.287M663.827 442.462V412.994M705.287 442.462H746.746M705.287 442.462V412.994M746.746 442.462H788.206M746.746 442.462V412.994M788.206 442.462H829.666M788.206 442.462V412.994M829.666 442.462H871.126M829.666 442.462V412.994M871.126 442.462H912.585M871.126 442.462V412.994M912.585 442.462H954.045M912.585 442.462V412.994M954.045 442.462H995.505M954.045 442.462V412.994M995.505 442.462H1036.96M995.505 442.462V412.994M1036.96 442.462H1078.42M1036.96 442.462V412.994M1078.42 442.462H1119.88M1078.42 442.462V412.994M1119.88 442.462H1161.34M1119.88 442.462V412.994M1161.34 442.462H1202.8M1161.34 442.462V412.994M1202.8 442.462H1244.26M1202.8 442.462V412.994M1244.26 442.462H1285.25M1244.26 442.462V412.994M415.069 11.4947V29.9121M415.069 29.9121V59.38M415.069 29.9121H456.528M415.069 59.38V88.8478M415.069 59.38H456.528M415.069 88.8478V118.316M415.069 88.8478H456.528M415.069 118.316V147.784M415.069 118.316H456.528M415.069 147.784V177.251M415.069 147.784H456.528M415.069 177.251V206.719M415.069 177.251H456.528M415.069 206.719V236.187M415.069 206.719H456.528M415.069 236.187L415.069 265.655M415.069 236.187H456.528M415.069 265.655V295.123M415.069 265.655H456.528M415.069 295.123V324.591M415.069 295.123H456.528M415.069 324.591V354.058M415.069 324.591H456.528M415.069 354.058V383.526M415.069 354.058H456.528M415.069 383.526V412.994M415.069 383.526H456.528M415.069 412.994H456.528M456.528 412.994H497.988M456.528 412.994V383.526M497.988 412.994H539.448M539.448 412.994H580.907M580.907 412.994H622.367M622.367 412.994H663.827M663.827 412.994H705.287M705.287 412.994H746.746M746.746 412.994H788.206M788.206 412.994H829.666M829.666 412.994H871.126M829.666 412.994V383.526M871.126 412.994H912.585M871.126 412.994V383.526M912.585 412.994H954.045M912.585 412.994V383.526M954.045 412.994H995.505M954.045 412.994V383.526M995.505 412.994H1036.96M995.505 412.994V383.526M1036.96 412.994H1078.42M1036.96 412.994V383.526M1078.42 412.994H1119.88M1078.42 412.994V383.526M1119.88 412.994H1161.34M1119.88 412.994V383.526M1161.34 412.994H1202.8M1161.34 412.994V383.526M1202.8 412.994H1244.26M1202.8 412.994V383.526M1244.26 412.994H1285.25M1244.26 412.994V383.526M456.528 11.4947V29.9121M456.528 29.9121V59.38M456.528 29.9121H497.988M456.528 59.38V88.8478M456.528 59.38H497.988M456.528 88.8478V118.316M456.528 88.8478H497.988M456.528 118.316V147.784M456.528 118.316H497.988M456.528 147.784V177.251M456.528 147.784H497.988M456.528 177.251V206.719M456.528 177.251H497.988M456.528 206.719V236.187M456.528 206.719H497.988M456.528 236.187V265.655M456.528 236.187H497.988M456.528 265.655V295.123M456.528 265.655H497.988M456.528 295.123V324.591M456.528 295.123H497.988M456.528 324.591V354.058M456.528 324.591H497.988M456.528 354.058V383.526M456.528 354.058H497.988M456.528 383.526H497.988M497.988 383.526H539.448M497.988 383.526L497.988 354.058M539.448 383.526H580.907M539.448 383.526V354.058M580.907 383.526H622.367M580.907 383.526V354.058M622.367 383.526H663.827M622.367 383.526V354.058M663.827 383.526H705.287M663.827 383.526V354.058M705.287 383.526H746.746M705.287 383.526V354.058M746.746 383.526H788.206M746.746 383.526V354.058M788.206 383.526H829.666M788.206 383.526V354.058M829.666 383.526H871.126M829.666 383.526V354.058M871.126 383.526H912.585M871.126 383.526V354.058M912.585 383.526H954.045M912.585 383.526V354.058M954.045 383.526H995.505M954.045 383.526V354.058M995.505 383.526H1036.96M995.505 383.526V354.058M1036.96 383.526H1078.42M1036.96 383.526V354.058M1078.42 383.526H1119.88M1078.42 383.526V354.058M1119.88 383.526H1161.34M1119.88 383.526V354.058M1161.34 383.526H1202.8M1161.34 383.526V354.058M1202.8 383.526H1244.26M1202.8 383.526V354.058M1244.26 383.526H1285.25M1244.26 383.526V354.058M497.988 11.4947V29.9121M497.988 29.9121V59.38M497.988 29.9121H539.448M497.988 59.38V88.8478M497.988 59.38H539.448M497.988 88.8478V118.316M497.988 88.8478H539.448M497.988 118.316L497.988 147.784M497.988 118.316H539.448M497.988 147.784V177.251M497.988 147.784H539.448M497.988 177.251V206.719M497.988 177.251H539.448M497.988 206.719V236.187M497.988 206.719H539.448M497.988 236.187V265.655M497.988 236.187H539.448M497.988 265.655V295.123M497.988 265.655H539.448M497.988 295.123V324.591M497.988 295.123H539.448M497.988 324.591V354.058M497.988 324.591H539.448M497.988 354.058H539.448M539.448 354.058H580.907M539.448 354.058V324.591M580.907 354.058H622.367M580.907 354.058V324.591M622.367 354.058H663.827M622.367 354.058V324.591M663.827 354.058H705.287M663.827 354.058V324.591M705.287 354.058H746.746M705.287 354.058V324.591M746.746 354.058H788.206M746.746 354.058V324.591M788.206 354.058H829.666M788.206 354.058V324.591M829.666 354.058H871.126M829.666 354.058V324.591M871.126 354.058H912.585M871.126 354.058V324.591M912.585 354.058H954.045M912.585 354.058V324.591M954.045 354.058H995.505M954.045 354.058V324.591M995.505 354.058H1036.96M995.505 354.058V324.591M1036.96 354.058H1078.42M1036.96 354.058V324.591M1078.42 354.058H1119.88M1078.42 354.058V324.591M1119.88 354.058H1161.34M1119.88 354.058V324.591M1161.34 354.058H1202.8M1161.34 354.058V324.591M1202.8 354.058H1244.26M1202.8 354.058V324.591M1244.26 354.058H1285.25M1244.26 354.058V324.591M539.448 11.4947V29.9121M539.448 29.9121V59.38M539.448 29.9121H580.908M539.448 59.38V88.8478M539.448 59.38H580.908M539.448 88.8478V118.316M539.448 88.8478H580.908M539.448 118.316V147.784M539.448 118.316H580.908M539.448 147.784V177.251M539.448 147.784H580.908M539.448 177.251V206.719M539.448 177.251H580.908M539.448 206.719V236.187M539.448 206.719H580.908M539.448 236.187L539.448 265.655M539.448 236.187H580.908M539.448 265.655V295.123M539.448 265.655H580.907M539.448 295.123V324.591M539.448 295.123H580.907M539.448 324.591H580.907M580.907 324.591H622.367M580.907 324.591V295.123M622.367 324.591H663.827M622.367 324.591V295.123M663.827 324.591H705.287M663.827 324.591V295.123M705.287 324.591H746.746M705.287 324.591V295.123M746.746 324.591H788.206M746.746 324.591V295.123M788.206 324.591H829.666M788.206 324.591V295.123M829.666 324.591H871.126M829.666 324.591V295.123M871.126 324.591H912.585M871.126 324.591V295.123M912.585 324.591H954.045M912.585 324.591V295.123M954.045 324.591H995.505M954.045 324.591V295.123M995.505 324.591H1036.96M995.505 324.591V295.123M1036.96 324.591H1078.42M1036.96 324.591V295.123M1078.42 324.591H1119.88M1078.42 324.591V295.123M1119.88 324.591H1161.34M1119.88 324.591V295.123M1161.34 324.591H1202.8M1161.34 324.591V295.123M1202.8 324.591H1244.26M1202.8 324.591V295.123M1244.26 324.591H1285.25M1244.26 324.591V295.123M580.908 11.4947V29.9121M580.908 29.9121V59.38M580.908 29.9121H622.367M580.908 59.38V88.8478M580.908 59.38H622.367M580.908 88.8478V118.316M580.908 88.8478H622.367M580.908 118.316V147.784M580.908 118.316H622.367M580.908 147.784V177.251M580.908 147.784H622.367M580.908 177.251V206.719M580.908 177.251H622.367M580.908 206.719V236.187M580.908 206.719H622.367M580.908 236.187L580.907 265.655M580.908 236.187H622.367M580.907 265.655V295.123M580.907 265.655H622.367M580.907 295.123H622.367M622.367 295.123H663.827M622.367 295.123V265.655M663.827 295.123H705.287M663.827 295.123V265.655M705.287 295.123H746.746M705.287 295.123V265.655M746.746 295.123H788.206M746.746 295.123V265.655M788.206 295.123H829.666M788.206 295.123V265.655M829.666 295.123H871.126M829.666 295.123V265.655M871.126 295.123H912.585M871.126 295.123V265.655M912.585 295.123H954.045M912.585 295.123V265.655M954.045 295.123H995.505M954.045 295.123V265.655M995.505 295.123H1036.96M995.505 295.123V265.655M1036.96 295.123H1078.42M1036.96 295.123V265.655M1078.42 295.123H1119.88M1078.42 295.123V265.655M1119.88 295.123H1161.34M1119.88 295.123V265.655M1161.34 295.123H1202.8M1161.34 295.123V265.655M1202.8 295.123H1244.26M1202.8 295.123V265.655M1244.26 295.123H1285.25M1244.26 295.123V265.655M622.367 11.4947V29.9121M622.367 29.9121V59.38M622.367 29.9121H663.827M622.367 59.38V88.8478M622.367 59.38H663.827M622.367 88.8478V118.316M622.367 88.8478H663.827M622.367 118.316V147.784M622.367 118.316H663.827M622.367 147.784V177.251M622.367 147.784H663.827M622.367 177.251V206.719M622.367 177.251H663.827M622.367 206.719V236.187M622.367 206.719H663.827M622.367 236.187L622.367 265.655M622.367 236.187H663.827M622.367 265.655H663.827M663.827 265.655H705.287M663.827 265.655L663.827 236.187M705.287 265.655H746.746M705.287 265.655L705.287 236.187M746.746 265.655H788.206M746.746 265.655L746.747 236.187M788.206 265.655H829.666M788.206 265.655L788.206 236.187M829.666 265.655H871.126M829.666 265.655L829.666 236.187M871.126 265.655H912.585M871.126 265.655L871.126 236.187M912.585 265.655H954.045M912.585 265.655L912.585 236.187M954.045 265.655H995.505M954.045 265.655L954.045 236.187M995.505 265.655H1036.96M995.505 265.655V236.187M1036.96 265.655H1078.42M1036.96 265.655V236.187M1078.42 265.655H1119.88M1078.42 265.655V236.187M1119.88 265.655H1161.34M1119.88 265.655V236.187M1161.34 265.655H1202.8M1161.34 265.655V236.187M1202.8 265.655H1244.26M1202.8 265.655V236.187M1244.26 265.655H1285.25M1244.26 265.655V236.187M663.827 11.4947V29.9121M663.827 29.9121V59.38M663.827 29.9121H705.287M663.827 59.38V88.8478M663.827 59.38H705.287M663.827 88.8478V118.316M663.827 88.8478H705.287M663.827 118.316V147.784M663.827 118.316H705.287M663.827 147.784V177.251M663.827 147.784H705.287M663.827 177.251V206.719M663.827 177.251H705.287M663.827 206.719V236.187M663.827 206.719H705.287M663.827 236.187H705.287M705.287 236.187H746.747M705.287 236.187V206.719M746.747 236.187H788.206M746.747 236.187V206.719M788.206 236.187H829.666M788.206 236.187V206.719M829.666 236.187H871.126M829.666 236.187V206.719M871.126 236.187H912.585M871.126 236.187V206.719M912.585 236.187H954.045M912.585 236.187V206.719M954.045 236.187H995.505M954.045 236.187V206.719M995.505 236.187H1036.96M995.505 236.187V206.719M1036.96 236.187H1078.42M1036.96 236.187V206.719M1078.42 236.187H1119.88M1078.42 236.187V206.719M1119.88 236.187H1161.34M1119.88 236.187V206.719M1161.34 236.187H1202.8M1161.34 236.187V206.719M1202.8 236.187H1244.26M1202.8 236.187V206.719M1244.26 236.187H1285.25M1244.26 236.187V206.719M705.287 11.4947V29.9121M705.287 29.9121V59.38M705.287 29.9121H746.747M705.287 59.38V88.8478M705.287 59.38H746.747M705.287 88.8478V118.316M705.287 88.8478H746.747M705.287 118.316V147.784M705.287 118.316H746.747M705.287 147.784V177.251M705.287 147.784H746.747M705.287 177.251V206.719M705.287 177.251H746.747M705.287 206.719H746.747M746.747 206.719H788.206M746.747 206.719V177.251M788.206 206.719H829.666M788.206 206.719V177.251M829.666 206.719H871.126M829.666 206.719V177.251M871.126 206.719H912.585M871.126 206.719V177.251M912.585 206.719H954.045M912.585 206.719V177.251M954.045 206.719H995.505M954.045 206.719V177.251M995.505 206.719H1036.96M995.505 206.719V177.251M1036.96 206.719H1078.42M1036.96 206.719V177.251M1078.42 206.719H1119.88M1078.42 206.719V177.251M1119.88 206.719H1161.34M1119.88 206.719V177.251M1161.34 206.719H1202.8M1161.34 206.719V177.251M1202.8 206.719H1244.26M1202.8 206.719V177.251M1244.26 206.719H1285.25M1244.26 206.719V177.251M746.747 11.4947V29.9121M746.747 29.9121V59.38M746.747 29.9121H788.206M746.747 59.38V88.8478M746.747 59.38H788.206M746.747 88.8478V118.316M746.747 88.8478H788.206M746.747 118.316V147.784M746.747 118.316H788.206M746.747 147.784V177.251M746.747 147.784H788.206M746.747 177.251H788.206M788.206 177.251H829.666M788.206 177.251V147.784M829.666 177.251H871.126M829.666 177.251V147.784M871.126 177.251H912.585M871.126 177.251V147.784M912.585 177.251H954.045M912.585 177.251V147.784M954.045 177.251H995.505M954.045 177.251V147.784M995.505 177.251H1036.96M995.505 177.251V147.784M1036.96 177.251H1078.42M1036.96 177.251V147.784M1078.42 177.251H1119.88M1078.42 177.251V147.784M1119.88 177.251H1161.34M1119.88 177.251V147.784M1161.34 177.251H1202.8M1161.34 177.251V147.784M1202.8 177.251H1244.26M1202.8 177.251V147.784M1244.26 177.251H1285.25M1244.26 177.251V147.784M788.206 11.4947V29.9121M788.206 29.9121V59.38M788.206 29.9121H829.666M788.206 59.38V88.8478M788.206 59.38H829.666M788.206 88.8478V118.316M788.206 88.8478H829.666M788.206 118.316V147.784M788.206 118.316H829.666M788.206 147.784H829.666M829.666 147.784H871.126M829.666 147.784V118.316M871.126 147.784H912.585M871.126 147.784V118.316M912.585 147.784H954.045M912.585 147.784V118.316M954.045 147.784H995.505M954.045 147.784V118.316M995.505 147.784H1036.96M995.505 147.784V118.316M1036.96 147.784H1078.42M1036.96 147.784V118.316M1078.42 147.784H1119.88M1078.42 147.784V118.316M1119.88 147.784H1161.34M1119.88 147.784V118.316M1161.34 147.784H1202.8M1161.34 147.784V118.316M1202.8 147.784H1244.26M1202.8 147.784V118.316M1244.26 147.784H1285.25M1244.26 147.784V118.316M829.666 11.4947V29.9121M829.666 29.9121V59.38M829.666 29.9121H871.126M829.666 59.38V88.8478M829.666 59.38H871.126M829.666 88.8478V118.316M829.666 88.8478H871.126M829.666 118.316H871.126M871.126 118.316H912.585M871.126 118.316V88.8478M912.585 118.316H954.045M912.585 118.316V88.8478M954.045 118.316H995.505M954.045 118.316V88.8478M995.505 118.316H1036.96M995.505 118.316V88.8478M1036.96 118.316H1078.42M1036.96 118.316V88.8478M1078.42 118.316H1119.88M1078.42 118.316V88.8478M1119.88 118.316H1161.34M1119.88 118.316V88.8478M1161.34 118.316H1202.8M1161.34 118.316V88.8478M1202.8 118.316H1244.26M1202.8 118.316V88.8478M1244.26 118.316H1285.25M1244.26 118.316V88.8478M871.126 11.4947V29.9121M871.126 29.9121V59.38M871.126 29.9121H912.585M871.126 59.38V88.8478M871.126 59.38H912.585M871.126 88.8478H912.585M912.585 88.8478H954.045M912.585 88.8478V59.38M954.045 88.8478H995.505M954.045 88.8478V59.38M995.505 88.8478H1036.96M995.505 88.8478V59.38M1036.96 88.8478H1078.42M1036.96 88.8478V59.38M1078.42 88.8478H1119.88M1078.42 88.8478V59.38M1119.88 88.8478H1161.34M1119.88 88.8478V59.38M1161.34 88.8478H1202.8M1161.34 88.8478V59.38M1202.8 88.8478H1244.26M1202.8 88.8478V59.38M1244.26 88.8478H1285.25M1244.26 88.8478V59.38M912.585 11.4947V29.9121M912.585 29.9121V59.38M912.585 29.9121H954.045M912.585 59.38H954.045M954.045 59.38H995.505M954.045 59.38V29.9121M995.505 59.38H1036.96M995.505 59.38V29.9121M1036.96 59.38H1078.42M1036.96 59.38V29.9121M1078.42 59.38H1119.88M1078.42 59.38V29.9121M1119.88 59.38H1161.34M1119.88 59.38V29.9121M1161.34 59.38H1202.8M1161.34 59.38V29.9121M1202.8 59.38H1244.26M1202.8 59.38V29.9121M1244.26 59.38H1285.25M1244.26 59.38V29.9121M954.045 11.4947V29.9121M954.045 29.9121H995.505M995.505 29.9121H1036.96M995.505 29.9121V11.4947M1036.96 29.9121H1078.42M1036.96 29.9121V11.4947M1078.42 29.9121H1119.88M1078.42 29.9121V11.4947M1119.88 29.9121H1161.34M1119.88 29.9121V11.4947M1161.34 29.9121H1202.8M1161.34 29.9121V11.4947M1202.8 29.9121H1244.26M1202.8 29.9121V11.4947M1244.26 29.9121H1285.25M1244.26 29.9121V11.4947M0 0.444275H1285.25M1285.72 11.4947V491.017" stroke="url(#paint0_radial_1_890)" stroke-width="0.888544"/>
<defs>
<radialGradient id="paint0_radial_1_890" cx="0" cy="0" r="1" gradientUnits="userSpaceOnUse" gradientTransform="translate(642.862 216.618) rotate(90) scale(274.399 719.163)">
<stop stop-color="white" stop-opacity="0.12"/>
<stop offset="0.6" stop-color="white" stop-opacity="0"/>
</radialGradient>
</defs>
</svg>
