<svg width="547" height="763" viewBox="0 0 547 763" fill="none" xmlns="http://www.w3.org/2000/svg">
<g opacity="0.68" clip-path="url(#clip0_1_1011)">
<path d="M68.4921 237.501L260.699 27.8383C260.699 27.8383 271.504 18.5913 280.848 15.9308C290.582 13.1405 305.117 18.3967 305.117 18.3967L532.982 113.754L553.358 142.89L557.251 801.015L548.523 834.985L292.755 816.296C292.755 816.296 262.906 811.916 241.783 816.296C220.661 820.677 67.0645 845.432 67.0645 845.432L68.5245 237.534L68.4921 237.501Z" fill="#000A2A"/>
<path d="M7.30331 901.271V877.618C7.07619 873.108 9.63939 868.631 9.63939 868.631C13.6302 863.699 16.4854 861.558 22.066 860.811L247.595 824.31C247.595 824.31 264.109 820.417 286.919 822.85C338.02 828.301 442.17 834.303 498.042 835.958C516.86 836.51 537.366 839.235 550.474 827.23C562.121 816.556 559.201 799.814 559.201 786.446L558.228 157.425C558.228 157.425 561.635 142.63 551.447 127.348C544.049 116.22 533.959 107.946 533.959 107.946L312.064 11.9397C312.064 11.9397 295.192 5.54793 281.241 7.75422C267.289 9.96052 256.485 21.6085 256.485 21.6085L65.0887 237.988C56.3609 246.715 61.5846 255.833 68.1062 255.184" stroke="#001D7D" stroke-width="14.568" stroke-miterlimit="10"/>
<path d="M68.1381 303.594C55.9385 303.14 67.0674 291.395 67.0674 291.395L261.221 96.2998C261.221 96.2998 268.651 88.7075 280.818 86.8906C293.699 84.9763 304.893 88.5453 304.893 88.5453L555.34 187.569" stroke="#001D7D" stroke-width="8.72784" stroke-linejoin="round"/>
<path d="M68.0085 346.616C55.809 346.161 67.0352 334.416 67.0352 334.416L261.027 152.235C261.027 152.235 268.457 145.097 280.624 143.312C293.505 141.398 304.763 144.805 304.763 144.805L555.697 237.988" stroke="#001D7D" stroke-width="8.72784" stroke-linejoin="round"/>
<path d="M67.9108 389.637C55.7113 389.183 67.0348 377.438 67.0348 377.438L260.864 208.202C260.864 208.202 268.294 201.551 280.461 199.734C293.342 197.82 304.666 201.097 304.666 201.097L556.118 288.44" stroke="#001D7D" stroke-width="8.72784" stroke-linejoin="round"/>
<path d="M67.8151 432.663C55.6156 432.208 67.0364 420.496 67.0364 420.496L260.704 264.206C260.704 264.206 268.134 258.041 280.301 256.224C293.182 254.31 304.57 257.457 304.57 257.457L556.542 338.928" stroke="#001D7D" stroke-width="8.72784" stroke-linejoin="round"/>
<path d="M67.7166 475.686C55.5171 475.232 67.0677 463.519 67.0677 463.519L260.573 320.175C260.573 320.175 268.003 314.497 280.17 312.68C293.051 310.766 304.471 313.783 304.471 313.783L556.93 389.414" stroke="#001D7D" stroke-width="8.72784" stroke-linejoin="round"/>
<path d="M67.6196 518.708C55.4201 518.254 67.068 506.541 67.068 506.541L260.411 376.142C260.411 376.142 267.841 370.919 280.008 369.134C292.889 367.22 304.374 370.107 304.374 370.107L557.352 439.898" stroke="#001D7D" stroke-width="8.72784" stroke-linejoin="round"/>
<path d="M67.4876 561.73C55.2881 561.276 67.0334 549.563 67.0334 549.563L260.214 432.111C260.214 432.111 267.644 427.374 279.811 425.557C292.692 423.642 304.242 426.368 304.242 426.368L557.739 490.318" stroke="#001D7D" stroke-width="8.72784" stroke-linejoin="round"/>
<path d="M67.3911 604.754C55.1916 604.3 67.0342 592.619 67.0342 592.619L260.053 488.112C260.053 488.112 267.483 483.862 279.65 482.045C292.53 480.131 304.146 482.726 304.146 482.726L558.129 540.836" stroke="#001D7D" stroke-width="8.72784" stroke-linejoin="round"/>
<path d="M67.2929 647.776C55.0934 647.322 67.0333 635.641 67.0333 635.641L259.889 544.08C259.889 544.08 267.319 540.284 279.486 538.5C292.367 536.585 304.015 539.051 304.015 539.051L558.518 591.321" stroke="#001D7D" stroke-width="8.72784" stroke-linejoin="round"/>
<path d="M67.1968 690.797C54.9973 690.343 67.0346 678.662 67.0346 678.662L259.728 600.047C259.728 600.047 267.158 596.737 279.326 594.953C292.206 593.039 303.919 595.375 303.919 595.375L558.941 641.804" stroke="#001D7D" stroke-width="8.72784" stroke-linejoin="round"/>
<path d="M67.1004 733.821C54.9008 733.367 67.0679 721.719 67.0679 721.719L259.6 656.049C259.6 656.049 267.03 653.226 279.197 651.41C292.078 649.495 303.855 651.669 303.855 651.669L559.364 692.258" stroke="#001D7D" stroke-width="8.72784" stroke-linejoin="round"/>
<path d="M66.9697 776.844C54.7702 776.389 67.0346 764.742 67.0346 764.742L259.404 711.985C259.404 711.985 266.834 709.649 279.001 707.832C291.882 705.918 303.725 707.962 303.725 707.962L559.752 742.711" stroke="#001D7D" stroke-width="8.72784" stroke-linejoin="round"/>
<path d="M66.8726 819.866C54.6731 819.411 67.0348 807.763 67.0348 807.763L259.242 767.953C259.242 767.953 266.672 766.071 278.839 764.286C291.72 762.372 303.627 764.286 303.627 764.286L560.174 793.195" stroke="#001D7D" stroke-width="8.72784" stroke-linejoin="round"/>
</g>
<defs>
<clipPath id="clip0_1_1011">
<rect width="567" height="763" fill="white"/>
</clipPath>
</defs>
</svg>
