<svg width="53" height="37" viewBox="0 0 53 37" fill="none" xmlns="http://www.w3.org/2000/svg">
<path d="M48.7136 2.07837C49.1921 1.51944 49.4811 0.79347 49.4811 0C49.4811 0.79347 49.7701 1.51944 50.2486 2.07837C50.5608 2.44304 50.9537 2.73661 51.3996 2.93143C51.7913 3.10256 52.2238 3.19749 52.6786 3.19749C52.2238 3.19749 51.7913 3.29242 51.3996 3.46354C50.2703 3.95695 49.4811 5.0838 49.4811 6.39497C49.4811 4.62905 48.0495 3.19749 46.2836 3.19749C47.2561 3.19749 48.1271 2.76337 48.7136 2.07837Z" fill="white"/>
<path d="M45.6773 3.83945C45.8606 5.38276 46.7891 6.69753 48.0929 7.4138C48.3535 7.557 48.6292 7.67627 48.9169 7.76867C48.9772 7.78807 49.0382 7.80628 49.0996 7.82328C49.5009 7.93436 49.9238 7.99371 50.3605 7.99371C49.959 7.99371 49.5693 8.04387 49.1972 8.13826C49.0457 8.17669 48.8972 8.22244 48.7519 8.27513C47.7664 8.63267 46.9339 9.30938 46.3793 10.1803C45.9948 10.7842 45.7439 11.4814 45.6683 12.2304H45.6201C45.5405 11.4423 45.2669 10.7115 44.8477 10.0865C44.3724 9.37759 43.7097 8.80479 42.9307 8.43885C42.3228 8.1533 41.644 7.99371 40.9279 7.99371C41.5425 7.99371 42.1297 7.87613 42.6682 7.66224C43.9761 7.14272 44.9965 6.05497 45.4247 4.70373C45.5124 4.42691 45.5753 4.13904 45.6107 3.84273C45.6328 3.84141 45.655 3.84032 45.6773 3.83945Z" fill="white"/>
<path fill-rule="evenodd" clip-rule="evenodd" d="M13.692 12.9502L10.6544 9.9126L6.35852 9.91259L3.11756 9.91259L0.0799442 9.9126L0.0799438 12.9502L0.0799457 27.9784L0.0799374 33.7339L0.079937 36.7715L3.11755 36.7715L4.71753 36.7715L9.01337 36.7715L12.051 33.7339L17.8064 27.9784L13.5106 27.9784L7.75514 33.7339L3.11755 33.7339L3.11756 27.9784L3.11756 12.9502L9.39612 12.9502L18.9675 22.5215L19.5846 23.1387L21.1154 24.6695L22.6222 23.1626L23.2633 22.5215L32.8346 12.9502L39.0893 12.9502L39.0893 27.9784L39.0893 33.7339L34.4756 33.7339L28.7202 27.9784L24.4243 27.9784L30.1798 33.7339L33.2174 36.7715L37.5132 36.7715L39.0893 36.7715L42.1269 36.7715L42.1269 33.7339L42.1269 27.9784L42.1269 12.9502L42.1269 9.9126L39.0893 9.9126L35.8722 9.9126L31.5764 9.9126L28.5388 12.9502L22.6222 18.8668L21.1154 20.3736L19.5846 18.8429L13.692 12.9502Z" fill="white" stroke="black" stroke-width="0.159874"/>
</svg>
