<svg width="271" height="114" viewBox="0 0 271 114" fill="none" xmlns="http://www.w3.org/2000/svg">
<mask id="mask0_48_24" style="mask-type:alpha" maskUnits="userSpaceOnUse" x="23" y="42" width="224" height="29">
<path d="M66.8579 56.4173C68.6339 52.145 68.48 48.8233 66.4073 46.4486C64.3309 44.0851 60.4184 42.8977 54.6623 42.8977H35.19L33.4328 47.1775H46.8374C53.6823 47.1775 55.6611 50.6157 53.2993 56.3084C51.9401 59.6 50.7348 62.6248 47.8887 63.97C45.2829 65.2062 42.5907 65.567 37.8033 65.567L31.5967 65.5519L36.2338 54.4747H30.3914L23.813 70.2489H41.4605C46.4093 70.2489 50.318 69.7942 53.1905 68.8661C56.3482 67.8478 59.1793 66.1757 61.6763 63.831C64.0042 61.6103 65.7314 59.134 66.8579 56.4173Z" fill="#1D1D1B"/>
<path d="M177.741 59.2955L189.602 47.6622L192.065 59.2955H177.741ZM76.9099 59.3406L88.4596 48.2108L90.5435 59.3406H76.9099ZM188.585 42.8638L188.592 42.8901H181.361L153.575 69.0952L164.438 42.8976H152.528L138.139 54.2566L130.731 60.3889H130.393L133.881 51.4573L129.631 42.8976H117.661L106.787 69.1478L100.524 42.8976H87.412L58.4551 70.2487H65.6868L73.0912 63.0981H91.3358L92.7889 70.2487H112.175L119.189 53.3436C119.538 52.4944 119.876 51.5174 120.203 50.4202C120.24 51.3107 120.477 52.2501 120.908 53.2308L127.066 67.3366H128.114L145.75 53.2834C146.407 52.7574 147.406 51.8067 148.746 50.4202C148.067 51.7053 147.59 52.671 147.305 53.3436L140.298 70.2487H153.102V70.2375H166.597L173.911 63.053H192.861L194.386 70.2375H201.047L194.555 42.8638H188.585Z" fill="#1D1D1B"/>
<path d="M246.116 42.8977H226.639C220.887 42.8977 215.995 44.0851 211.954 46.4486C207.914 48.8233 205.016 52.145 203.24 56.4173C202.113 59.134 201.79 61.6103 202.275 63.831C202.842 66.1757 204.276 67.8515 206.581 68.8661C208.695 69.7942 212.232 70.2489 217.177 70.2489H234.784L236.533 65.9089H226.621C221.833 65.9089 218.653 65.2814 217.072 64.0452C215.334 62.7112 215.529 59.6037 216.884 56.3084C219.246 50.6157 224.191 47.0723 231.033 47.0723H238.711L236.95 51.3447H242.793L246.194 43.1382H246.022L246.116 42.8977Z" fill="#1D1D1B"/>
</mask>
<g mask="url(#mask0_48_24)">
<rect x="19.6222" y="23.3013" width="226.269" height="66.225" fill="#EDEDED"/>
</g>
</svg>
