<svg width="66" height="66" viewBox="0 0 66 66" fill="none" xmlns="http://www.w3.org/2000/svg">
<rect x="0.758621" y="0.758621" width="64.4828" height="64.4828" rx="12.8966" fill="white" fill-opacity="0.09"/>
<rect x="0.758621" y="0.758621" width="64.4828" height="64.4828" rx="12.8966" stroke="url(#paint0_linear_1_942)" stroke-width="1.51724"/>
<g clip-path="url(#clip0_1_942)">
<path d="M53.1139 30.2396L49.1264 22.2615C48.9795 21.9679 48.7762 21.706 48.5282 21.491C48.2801 21.2759 47.992 21.1118 47.6805 21.0081C47.369 20.9043 47.0401 20.8629 46.7126 20.8863C46.3851 20.9097 46.0654 20.9974 45.7718 21.1443L41.8858 23.0865L33.6999 20.9209C33.4898 20.8662 33.2693 20.8662 33.0593 20.9209L24.8733 23.0865L20.9874 21.1443C20.6938 20.9974 20.3741 20.9097 20.0466 20.8863C19.7191 20.8629 19.3902 20.9043 19.0786 21.0081C18.7671 21.1118 18.4791 21.2759 18.231 21.491C17.9829 21.706 17.7796 21.9679 17.6327 22.2615L13.6452 30.2381C13.4983 30.5317 13.4106 30.8514 13.3872 31.1789C13.3638 31.5064 13.4052 31.8353 13.5089 32.1468C13.6127 32.4583 13.7768 32.7464 13.9918 32.9945C14.2069 33.2426 14.4687 33.4459 14.7624 33.5928L18.9811 35.7037L27.6514 41.8959C27.7792 41.9868 27.9228 42.053 28.0749 42.0912L38.0749 44.5912C38.2843 44.6437 38.5038 44.6411 38.7119 44.5836C38.92 44.5261 39.1096 44.4157 39.2624 44.2631L45.5124 38.0131L47.8686 35.6568L51.9968 33.5928C52.5894 33.2961 53.04 32.7762 53.2495 32.1475C53.459 31.5187 53.4102 30.8325 53.1139 30.2396ZM44.5374 35.4537L39.1608 31.1474C38.92 30.9545 38.6163 30.8576 38.3082 30.8752C38.0001 30.8928 37.7094 31.0237 37.4921 31.2428C34.7093 34.0459 31.6077 33.6912 29.6296 32.4412L36.3858 25.8787H41.3561L45.6077 34.3803L44.5374 35.4537ZM37.9952 41.9943L28.9139 39.724L21.2264 34.2334L25.6014 25.4834L33.3796 23.4224L34.9108 23.8271L27.8796 30.6521L27.8671 30.6662C27.6024 30.9309 27.4005 31.2516 27.2764 31.6047C27.1522 31.9578 27.1089 32.3343 27.1497 32.7064C27.1905 33.0785 27.3143 33.4367 27.5121 33.7545C27.7098 34.0723 27.9763 34.3417 28.2921 34.5428C31.5046 36.5943 35.3811 36.2615 38.4343 33.7615L42.7546 37.2318L37.9952 41.9943ZM33.9764 47.4318C33.9089 47.702 33.7531 47.9419 33.5337 48.1134C33.3144 48.2849 33.044 48.3783 32.7655 48.3787C32.6628 48.3786 32.5605 48.366 32.4608 48.3412L25.9436 46.7115C25.7913 46.6739 25.6476 46.6076 25.5202 46.5162L21.403 43.5756C21.1499 43.3768 20.9831 43.088 20.9375 42.7694C20.892 42.4508 20.971 42.1269 21.1583 41.8651C21.3456 41.6033 21.6266 41.4239 21.9429 41.3641C22.2591 41.3044 22.5863 41.3689 22.8561 41.5443L26.7796 44.3474L33.0671 45.9162C33.3886 45.9966 33.6651 46.2015 33.8356 46.4857C34.0061 46.7699 34.0568 47.1102 33.9764 47.4318Z" fill="url(#paint1_linear_1_942)"/>
</g>
<defs>
<linearGradient id="paint0_linear_1_942" x1="33" y1="0" x2="33" y2="66" gradientUnits="userSpaceOnUse">
<stop stop-color="#001A39"/>
<stop offset="1" stop-color="#00387A"/>
</linearGradient>
<linearGradient id="paint1_linear_1_942" x1="33.3793" y1="20.8799" x2="33.3793" y2="48.3787" gradientUnits="userSpaceOnUse">
<stop stop-color="white"/>
<stop offset="1" stop-color="#999999"/>
</linearGradient>
<clipPath id="clip0_1_942">
<rect width="40" height="40" fill="white" transform="translate(13.3789 13.3789)"/>
</clipPath>
</defs>
</svg>
