<svg width="66" height="66" viewBox="0 0 66 66" fill="none" xmlns="http://www.w3.org/2000/svg">
<rect x="0.758621" y="0.758621" width="64.4828" height="64.4828" rx="12.8966" fill="white" fill-opacity="0.09"/>
<rect x="0.758621" y="0.758621" width="64.4828" height="64.4828" rx="12.8966" stroke="url(#paint0_linear_1_952)" stroke-width="1.51724"/>
<g clip-path="url(#clip0_1_952)">
<path d="M49.6289 45.8789C49.6289 46.2104 49.4972 46.5284 49.2628 46.7628C49.0284 46.9972 48.7104 47.1289 48.3789 47.1289H18.3789C18.0474 47.1289 17.7294 46.9972 17.495 46.7628C17.2606 46.5284 17.1289 46.2104 17.1289 45.8789C17.1289 45.5474 17.2606 45.2294 17.495 44.995C17.7294 44.7606 18.0474 44.6289 18.3789 44.6289H19.6289V34.6289C19.6289 34.2974 19.7606 33.9794 19.995 33.745C20.2294 33.5106 20.5474 33.3789 20.8789 33.3789H24.6289C24.9604 33.3789 25.2784 33.5106 25.5128 33.745C25.7472 33.9794 25.8789 34.2974 25.8789 34.6289V44.6289H28.3789V27.1289C28.3789 26.7974 28.5106 26.4794 28.745 26.245C28.9794 26.0106 29.2974 25.8789 29.6289 25.8789H34.6289C34.9604 25.8789 35.2784 26.0106 35.5128 26.245C35.7472 26.4794 35.8789 26.7974 35.8789 27.1289V44.6289H38.3789V19.6289C38.3789 19.2974 38.5106 18.9794 38.745 18.745C38.9794 18.5106 39.2974 18.3789 39.6289 18.3789H45.8789C46.2104 18.3789 46.5284 18.5106 46.7628 18.745C46.9972 18.9794 47.1289 19.2974 47.1289 19.6289V44.6289H48.3789C48.7104 44.6289 49.0284 44.7606 49.2628 44.995C49.4972 45.2294 49.6289 45.5474 49.6289 45.8789Z" fill="url(#paint1_linear_1_952)"/>
</g>
<defs>
<linearGradient id="paint0_linear_1_952" x1="33" y1="0" x2="33" y2="66" gradientUnits="userSpaceOnUse">
<stop stop-color="#001A39"/>
<stop offset="1" stop-color="#00387A"/>
</linearGradient>
<linearGradient id="paint1_linear_1_952" x1="33.3789" y1="18.3789" x2="33.3789" y2="47.1289" gradientUnits="userSpaceOnUse">
<stop stop-color="white"/>
<stop offset="1" stop-color="#999999"/>
</linearGradient>
<clipPath id="clip0_1_952">
<rect width="40" height="40" fill="white" transform="translate(13.3789 13.3789)"/>
</clipPath>
</defs>
</svg>
