<svg width="66" height="66" viewBox="0 0 66 66" fill="none" xmlns="http://www.w3.org/2000/svg">
<rect x="0.758621" y="0.758621" width="64.4828" height="64.4828" rx="12.8966" fill="white" fill-opacity="0.09"/>
<rect x="0.758621" y="0.758621" width="64.4828" height="64.4828" rx="12.8966" stroke="url(#paint0_linear_1_983)" stroke-width="1.51724"/>
<g clip-path="url(#clip0_1_983)">
<path d="M46.7633 23.7445L40.5133 17.4945C40.3971 17.3785 40.2592 17.2865 40.1075 17.2237C39.9557 17.161 39.7931 17.1288 39.6289 17.1289H27.1289C26.4659 17.1289 25.83 17.3923 25.3611 17.8611C24.8923 18.33 24.6289 18.9659 24.6289 19.6289V22.1289H22.1289C21.4659 22.1289 20.83 22.3923 20.3611 22.8611C19.8923 23.33 19.6289 23.9659 19.6289 24.6289V47.1289C19.6289 47.7919 19.8923 48.4278 20.3611 48.8967C20.83 49.3655 21.4659 49.6289 22.1289 49.6289H39.6289C40.2919 49.6289 40.9278 49.3655 41.3967 48.8967C41.8655 48.4278 42.1289 47.7919 42.1289 47.1289V44.6289H44.6289C45.2919 44.6289 45.9278 44.3655 46.3967 43.8967C46.8655 43.4278 47.1289 42.7919 47.1289 42.1289V24.6289C47.129 24.4647 47.0968 24.3021 47.0341 24.1503C46.9713 23.9986 46.8793 23.8607 46.7633 23.7445ZM34.6289 43.3789H27.1289C26.7974 43.3789 26.4794 43.2472 26.245 43.0128C26.0106 42.7784 25.8789 42.4604 25.8789 42.1289C25.8789 41.7974 26.0106 41.4794 26.245 41.245C26.4794 41.0106 26.7974 40.8789 27.1289 40.8789H34.6289C34.9604 40.8789 35.2784 41.0106 35.5128 41.245C35.7472 41.4794 35.8789 41.7974 35.8789 42.1289C35.8789 42.4604 35.7472 42.7784 35.5128 43.0128C35.2784 43.2472 34.9604 43.3789 34.6289 43.3789ZM34.6289 38.3789H27.1289C26.7974 38.3789 26.4794 38.2472 26.245 38.0128C26.0106 37.7784 25.8789 37.4604 25.8789 37.1289C25.8789 36.7974 26.0106 36.4794 26.245 36.245C26.4794 36.0106 26.7974 35.8789 27.1289 35.8789H34.6289C34.9604 35.8789 35.2784 36.0106 35.5128 36.245C35.7472 36.4794 35.8789 36.7974 35.8789 37.1289C35.8789 37.4604 35.7472 37.7784 35.5128 38.0128C35.2784 38.2472 34.9604 38.3789 34.6289 38.3789ZM44.6289 42.1289H42.1289V29.6289C42.129 29.4647 42.0968 29.3021 42.0341 29.1503C41.9713 28.9986 41.8793 28.8607 41.7633 28.7445L35.5133 22.4945C35.3971 22.3785 35.2592 22.2865 35.1075 22.2237C34.9557 22.161 34.7931 22.1288 34.6289 22.1289H27.1289V19.6289H39.1117L44.6289 25.1461V42.1289Z" fill="url(#paint1_linear_1_983)"/>
</g>
<defs>
<linearGradient id="paint0_linear_1_983" x1="33" y1="0" x2="33" y2="66" gradientUnits="userSpaceOnUse">
<stop stop-color="#001A39"/>
<stop offset="1" stop-color="#00387A"/>
</linearGradient>
<linearGradient id="paint1_linear_1_983" x1="33.3789" y1="17.1289" x2="33.3789" y2="49.6289" gradientUnits="userSpaceOnUse">
<stop stop-color="white"/>
<stop offset="1" stop-color="#999999"/>
</linearGradient>
<clipPath id="clip0_1_983">
<rect width="40" height="40" fill="white" transform="translate(13.3789 13.3789)"/>
</clipPath>
</defs>
</svg>
