<svg width="66" height="66" viewBox="0 0 66 66" fill="none" xmlns="http://www.w3.org/2000/svg">
<rect x="0.758621" y="0.758621" width="64.4828" height="64.4828" rx="12.8966" fill="white" fill-opacity="0.09"/>
<rect x="0.758621" y="0.758621" width="64.4828" height="64.4828" rx="12.8966" stroke="url(#paint0_linear_1_962)" stroke-width="1.51724"/>
<g clip-path="url(#clip0_1_962)">
<path d="M49.25 47.5H45.5V17.5H46.75C47.0815 17.5 47.3995 17.3683 47.6339 17.1339C47.8683 16.8995 48 16.5815 48 16.25C48 15.9185 47.8683 15.6005 47.6339 15.3661C47.3995 15.1317 47.0815 15 46.75 15H19.25C18.9185 15 18.6005 15.1317 18.3661 15.3661C18.1317 15.6005 18 15.9185 18 16.25C18 16.5815 18.1317 16.8995 18.3661 17.1339C18.6005 17.3683 18.9185 17.5 19.25 17.5H20.5V47.5H16.75C16.4185 47.5 16.1005 47.6317 15.8661 47.8661C15.6317 48.1005 15.5 48.4185 15.5 48.75C15.5 49.0815 15.6317 49.3995 15.8661 49.6339C16.1005 49.8683 16.4185 50 16.75 50H49.25C49.5815 50 49.8995 49.8683 50.1339 49.6339C50.3683 49.3995 50.5 49.0815 50.5 48.75C50.5 48.4185 50.3683 48.1005 50.1339 47.8661C49.8995 47.6317 49.5815 47.5 49.25 47.5ZM26.75 21.25H30.5C30.8315 21.25 31.1495 21.3817 31.3839 21.6161C31.6183 21.8505 31.75 22.1685 31.75 22.5C31.75 22.8315 31.6183 23.1495 31.3839 23.3839C31.1495 23.6183 30.8315 23.75 30.5 23.75H26.75C26.4185 23.75 26.1005 23.6183 25.8661 23.3839C25.6317 23.1495 25.5 22.8315 25.5 22.5C25.5 22.1685 25.6317 21.8505 25.8661 21.6161C26.1005 21.3817 26.4185 21.25 26.75 21.25ZM26.75 27.5H30.5C30.8315 27.5 31.1495 27.6317 31.3839 27.8661C31.6183 28.1005 31.75 28.4185 31.75 28.75C31.75 29.0815 31.6183 29.3995 31.3839 29.6339C31.1495 29.8683 30.8315 30 30.5 30H26.75C26.4185 30 26.1005 29.8683 25.8661 29.6339C25.6317 29.3995 25.5 29.0815 25.5 28.75C25.5 28.4185 25.6317 28.1005 25.8661 27.8661C26.1005 27.6317 26.4185 27.5 26.75 27.5ZM25.5 35C25.5 34.6685 25.6317 34.3505 25.8661 34.1161C26.1005 33.8817 26.4185 33.75 26.75 33.75H30.5C30.8315 33.75 31.1495 33.8817 31.3839 34.1161C31.6183 34.3505 31.75 34.6685 31.75 35C31.75 35.3315 31.6183 35.6495 31.3839 35.8839C31.1495 36.1183 30.8315 36.25 30.5 36.25H26.75C26.4185 36.25 26.1005 36.1183 25.8661 35.8839C25.6317 35.6495 25.5 35.3315 25.5 35ZM36.75 47.5H29.25V41.25H36.75V47.5ZM39.25 36.25H35.5C35.1685 36.25 34.8505 36.1183 34.6161 35.8839C34.3817 35.6495 34.25 35.3315 34.25 35C34.25 34.6685 34.3817 34.3505 34.6161 34.1161C34.8505 33.8817 35.1685 33.75 35.5 33.75H39.25C39.5815 33.75 39.8995 33.8817 40.1339 34.1161C40.3683 34.3505 40.5 34.6685 40.5 35C40.5 35.3315 40.3683 35.6495 40.1339 35.8839C39.8995 36.1183 39.5815 36.25 39.25 36.25ZM39.25 30H35.5C35.1685 30 34.8505 29.8683 34.6161 29.6339C34.3817 29.3995 34.25 29.0815 34.25 28.75C34.25 28.4185 34.3817 28.1005 34.6161 27.8661C34.8505 27.6317 35.1685 27.5 35.5 27.5H39.25C39.5815 27.5 39.8995 27.6317 40.1339 27.8661C40.3683 28.1005 40.5 28.4185 40.5 28.75C40.5 29.0815 40.3683 29.3995 40.1339 29.6339C39.8995 29.8683 39.5815 30 39.25 30ZM39.25 23.75H35.5C35.1685 23.75 34.8505 23.6183 34.6161 23.3839C34.3817 23.1495 34.25 22.8315 34.25 22.5C34.25 22.1685 34.3817 21.8505 34.6161 21.6161C34.8505 21.3817 35.1685 21.25 35.5 21.25H39.25C39.5815 21.25 39.8995 21.3817 40.1339 21.6161C40.3683 21.8505 40.5 22.1685 40.5 22.5C40.5 22.8315 40.3683 23.1495 40.1339 23.3839C39.8995 23.6183 39.5815 23.75 39.25 23.75Z" fill="url(#paint1_linear_1_962)"/>
</g>
<defs>
<linearGradient id="paint0_linear_1_962" x1="33" y1="0" x2="33" y2="66" gradientUnits="userSpaceOnUse">
<stop stop-color="#001A39"/>
<stop offset="1" stop-color="#00387A"/>
</linearGradient>
<linearGradient id="paint1_linear_1_962" x1="33" y1="15" x2="33" y2="50" gradientUnits="userSpaceOnUse">
<stop stop-color="white"/>
<stop offset="1" stop-color="#999999"/>
</linearGradient>
<clipPath id="clip0_1_962">
<rect width="40" height="40" fill="white" transform="translate(13 12.5)"/>
</clipPath>
</defs>
</svg>
