<svg width="66" height="66" viewBox="0 0 66 66" fill="none" xmlns="http://www.w3.org/2000/svg">
<rect x="0.758621" y="0.758621" width="64.4828" height="64.4828" rx="12.8966" fill="white" fill-opacity="0.09"/>
<rect x="0.758621" y="0.758621" width="64.4828" height="64.4828" rx="12.8966" stroke="url(#paint0_linear_1_972)" stroke-width="1.51724"/>
<g clip-path="url(#clip0_1_972)">
<path d="M33.393 22.3449C33.463 21.3749 33.7834 20.4395 34.3228 19.6302C34.8622 18.8209 35.6023 18.1653 36.4707 17.7274C37.3391 17.2895 38.3062 17.0843 39.2777 17.1317C40.2491 17.1791 41.1916 17.4776 42.0133 17.9981C42.1072 18.0595 42.1829 18.1451 42.2323 18.2459C42.2817 18.3467 42.303 18.459 42.2941 18.5709C42.2851 18.6828 42.2462 18.7902 42.1814 18.8819C42.1166 18.9735 42.0283 19.0461 41.9258 19.0918C40.4975 19.7344 39.285 20.7757 38.4341 22.0906C37.5832 23.4055 37.13 24.9381 37.1289 26.5043C37.1289 26.6871 37.1289 26.8699 37.1477 27.0496C37.1563 27.1632 37.1337 27.277 37.0823 27.3786C37.031 27.4803 36.9528 27.566 36.8563 27.6265C36.7598 27.687 36.6486 27.7199 36.5347 27.7218C36.4208 27.7237 36.3086 27.6944 36.2102 27.6371C35.2893 27.1104 34.5362 26.334 34.0377 25.3976C33.5393 24.4612 33.3157 23.4029 33.393 22.3449ZM50.8789 38.4746C50.8811 39.1889 50.6833 39.8895 50.3077 40.4971C49.9321 41.1046 49.3938 41.5948 48.7539 41.9121L48.6852 41.9434L42.618 44.5277C42.558 44.5541 42.4958 44.5751 42.432 44.5902L32.432 47.0902C32.333 47.1157 32.2312 47.1288 32.1289 47.1293H15.8789C15.2159 47.1293 14.58 46.8659 14.1111 46.3971C13.6423 45.9282 13.3789 45.2923 13.3789 44.6293V38.3793C13.3789 37.7163 13.6423 37.0804 14.1111 36.6115C14.58 36.1427 15.2159 35.8793 15.8789 35.8793H20.3617L23.8961 32.3434C24.3595 31.8778 24.9106 31.5088 25.5176 31.2575C26.1245 31.0062 26.7752 30.8777 27.432 30.8793H35.2539C35.9142 30.8792 36.5659 31.0286 37.1602 31.3162C37.7546 31.6039 38.2761 32.0223 38.6857 32.5401C39.0953 33.058 39.3824 33.6618 39.5255 34.3064C39.6685 34.951 39.6638 35.6196 39.5117 36.2621L46.0492 34.759C46.6183 34.6083 47.2145 34.5903 47.7917 34.7063C48.3689 34.8224 48.9117 35.0694 49.3783 35.4284C49.8449 35.7874 50.2229 36.2488 50.4831 36.7769C50.7432 37.305 50.8787 37.8859 50.8789 38.4746ZM48.3789 38.4746C48.3787 38.2679 48.3309 38.0641 48.2392 37.8789C48.1475 37.6937 48.0143 37.5321 47.85 37.4066C47.6858 37.2812 47.4948 37.1953 47.292 37.1556C47.0891 37.1159 46.8799 37.1235 46.6805 37.1777L46.632 37.1902L36.1633 39.5981C36.0715 39.6186 35.9777 39.629 35.8836 39.6293H30.8789C30.5474 39.6293 30.2294 39.4976 29.995 39.2632C29.7606 39.0288 29.6289 38.7108 29.6289 38.3793C29.6289 38.0478 29.7606 37.7298 29.995 37.4954C30.2294 37.261 30.5474 37.1293 30.8789 37.1293H35.2539C35.7512 37.1293 36.2281 36.9318 36.5797 36.5801C36.9314 36.2285 37.1289 35.7516 37.1289 35.2543C37.1289 34.757 36.9314 34.2801 36.5797 33.9285C36.2281 33.5768 35.7512 33.3793 35.2539 33.3793H27.432C27.1036 33.3783 26.7782 33.4425 26.4749 33.5683C26.1715 33.6941 25.8961 33.879 25.6648 34.1121L22.1289 37.6465V44.6293H31.9727L41.7273 42.1902L47.6648 39.6621C47.881 39.5483 48.0618 39.3774 48.1876 39.168C48.3135 38.9587 48.3797 38.7189 48.3789 38.4746ZM39.6289 26.5043C39.6289 27.6168 39.9588 28.7044 40.5769 29.6294C41.195 30.5544 42.0735 31.2754 43.1013 31.7011C44.1291 32.1269 45.2601 32.2383 46.3513 32.0212C47.4424 31.8042 48.4447 31.2684 49.2314 30.4818C50.0181 29.6951 50.5538 28.6928 50.7708 27.6017C50.9879 26.5105 50.8765 25.3795 50.4507 24.3517C50.025 23.3239 49.304 22.4454 48.379 21.8273C47.454 21.2092 46.3664 20.8793 45.2539 20.8793C43.7621 20.8793 42.3313 21.4719 41.2764 22.5268C40.2215 23.5817 39.6289 25.0125 39.6289 26.5043Z" fill="url(#paint1_linear_1_972)"/>
</g>
<defs>
<linearGradient id="paint0_linear_1_972" x1="33" y1="0" x2="33" y2="66" gradientUnits="userSpaceOnUse">
<stop stop-color="#001A39"/>
<stop offset="1" stop-color="#00387A"/>
</linearGradient>
<linearGradient id="paint1_linear_1_972" x1="32.1289" y1="17.125" x2="32.1289" y2="47.1293" gradientUnits="userSpaceOnUse">
<stop stop-color="white"/>
<stop offset="1" stop-color="#999999"/>
</linearGradient>
<clipPath id="clip0_1_972">
<rect width="40" height="40" fill="white" transform="translate(13.3789 13.3789)"/>
</clipPath>
</defs>
</svg>
