<svg width="66" height="66" viewBox="0 0 66 66" fill="none" xmlns="http://www.w3.org/2000/svg">
<rect x="0.758621" y="0.758621" width="64.4828" height="64.4828" rx="12.8966" fill="white" fill-opacity="0.09"/>
<rect x="0.758621" y="0.758621" width="64.4828" height="64.4828" rx="12.8966" stroke="url(#paint0_linear_1_1003)" stroke-width="1.51724"/>
<g clip-path="url(#clip0_1_1003)">
<path d="M22.1289 24.629H28.3477C28.8023 24.6024 36.7258 24.0446 44.2711 17.7165C44.6355 17.4104 45.0796 17.2148 45.5513 17.1524C46.023 17.0901 46.5027 17.1636 46.9341 17.3645C47.3655 17.5653 47.7305 17.885 47.9865 18.2862C48.2424 18.6873 48.3785 19.1531 48.3789 19.629V44.629C48.3788 45.1049 48.2429 45.571 47.9871 45.9723C47.7313 46.3737 47.3662 46.6937 46.9348 46.8947C46.5034 47.0957 46.0235 47.1694 45.5517 47.1071C45.0798 47.0448 44.6356 46.8491 44.2711 46.543C38.3695 41.593 32.2398 40.1743 29.6289 39.7774V44.7336C29.6294 45.1456 29.5281 45.5513 29.3341 45.9147C29.14 46.278 28.8591 46.5878 28.5164 46.8165L26.7977 47.9618C26.4654 48.1835 26.0849 48.3224 25.688 48.3669C25.2911 48.4113 24.8893 48.36 24.5163 48.2173C24.1432 48.0745 23.8098 47.8445 23.544 47.5464C23.2781 47.2483 23.0876 46.8908 22.9883 46.504L21.1492 39.5727C19.2481 39.3391 17.5083 38.387 16.2868 36.9116C15.0653 35.4362 14.4545 33.5494 14.5798 31.638C14.7051 29.7267 15.557 27.9357 16.9607 26.6324C18.3644 25.3292 20.2135 24.6123 22.1289 24.629ZM25.4102 45.8618V45.879L27.1289 44.7336V39.629H23.7539L25.4102 45.8618ZM22.1289 37.129H27.1289V27.129H22.1289C20.8028 27.129 19.5311 27.6557 18.5934 28.5934C17.6557 29.5311 17.1289 30.8029 17.1289 32.129C17.1289 33.455 17.6557 34.7268 18.5934 35.6645C19.5311 36.6022 20.8028 37.129 22.1289 37.129Z" fill="url(#paint1_linear_1_1003)"/>
</g>
<defs>
<linearGradient id="paint0_linear_1_1003" x1="33" y1="0" x2="33" y2="66" gradientUnits="userSpaceOnUse">
<stop stop-color="#001A39"/>
<stop offset="1" stop-color="#00387A"/>
</linearGradient>
<linearGradient id="paint1_linear_1_1003" x1="31.4713" y1="17.1309" x2="31.4713" y2="48.3824" gradientUnits="userSpaceOnUse">
<stop stop-color="white"/>
<stop offset="1" stop-color="#999999"/>
</linearGradient>
<clipPath id="clip0_1_1003">
<rect width="40" height="40" fill="white" transform="matrix(-1 0 0 1 53.3789 13.3789)"/>
</clipPath>
</defs>
</svg>
